{"buffers":[{"uri":"valve.gltf.bin","byteLength":361788}],"asset":{"version":"2.0","generator":"gltfpack 0.16"},"bufferViews":[{"buffer":0,"byteOffset":0,"byteLength":141936,"byteStride":12,"target":34962},{"buffer":0,"byteOffset":141936,"byteLength":141936,"byteStride":12,"target":34962},{"buffer":0,"byteOffset":283872,"byteLength":77916,"target":34963}],"accessors":[{"bufferView":0,"byteOffset":0,"componentType":5126,"count":11508,"type":"VEC3","min":[-0.115000002,-0.0823435187,-0.0824608728],"max":[0.166019991,0.0825000033,0.1105]},{"bufferView":1,"byteOffset":0,"componentType":5126,"count":11508,"type":"VEC3"},{"bufferView":2,"byteOffset":0,"componentType":5123,"count":37986,"type":"SCALAR"},{"bufferView":0,"byteOffset":138096,"componentType":5126,"count":320,"type":"VEC3","min":[0.0720200017,-0.0149999997,0.103],"max":[0.197019994,0.0149999997,0.1105]},{"bufferView":1,"byteOffset":138096,"componentType":5126,"count":320,"type":"VEC3"},{"bufferView":2,"byteOffset":75972,"componentType":5123,"count":972,"type":"SCALAR"}],"materials":[{"pbrMetallicRoughness":{"baseColorFactor":[0.690196097,0.690196097,0.690196097,1],"metallicFactor":0,"roughnessFactor":0},"doubleSided":true},{"pbrMetallicRoughness":{"baseColorFactor":[0.749019623,0,0,1],"metallicFactor":0,"roughnessFactor":0},"doubleSided":true}],"meshes":[{"primitives":[{"attributes":{"POSITION":0,"NORMAL":1},"mode":4,"indices":2,"material":0}]},{"primitives":[{"attributes":{"POSITION":3,"NORMAL":4},"mode":4,"indices":5,"material":1}]}],"nodes":[{"mesh":0},{"mesh":1},{"children":[0]},{"children":[1]}],"scenes":[{"nodes":[2,3]}]}